<?xml version="1.0" standalone="no"?><!DOCTYPE svg PUBLIC "-//W3C//DTD SVG 1.1//EN" "http://www.w3.org/Graphics/SVG/1.1/DTD/svg11.dtd"><svg t="1624529104371" class="icon" viewBox="0 0 1024 1024" version="1.1" xmlns="http://www.w3.org/2000/svg" p-id="2486" xmlns:xlink="http://www.w3.org/1999/xlink" width="200" height="200"><defs><style type="text/css"></style></defs><path d="M512 512m-512 0a512 512 0 1 0 1024 0 512 512 0 1 0-1024 0Z" fill="#E4F2F2" p-id="2487"></path><path d="M832.512 888.32c-45.056-28.16-204.8-23.04-219.136-69.632-4.096-13.824-6.144-31.232-6.144-49.152-0.512-41.984 6.144-84.992 6.144-84.992l-100.864-30.72-100.864 30.72s7.168 44.032 6.144 86.528c-0.512 17.408-2.048 34.304-6.144 47.616-14.336 46.592-174.08 41.472-219.136 69.632-4.608 3.072-9.216 7.168-13.824 11.776C267.776 977.408 384.512 1024 512 1024c127.488 0 244.224-46.592 333.824-123.904-4.096-5.12-8.704-9.216-13.312-11.776z" fill="#FCCCA7" p-id="2488"></path><path d="M512 655.36l-102.912 30.208s9.216 52.224 8.192 94.72c18.432 20.48 92.672 23.552 93.696 23.552 1.024 0 76.8-4.096 95.744-25.088-0.512-41.984 7.68-92.672 7.68-92.672l-102.4-30.72z" fill="#EFAD7D" p-id="2489"></path><path d="M513.024 1024h-1.024 1.024zM410.624 816.128c-14.848 47.104-176.128 41.472-221.696 70.656-4.608 2.56-8.704 6.656-13.312 11.776C265.728 976.384 383.488 1024 512 1024h1.024l-38.4-140.8c-50.688 0-61.44-73.728-64-67.072zM837.12 886.784c-46.08-28.672-205.312-19.968-220.16-67.072-2.048-7.168-15.36 63.488-65.536 63.488l-38.4 140.8c129.024 0 246.784-48.128 336.896-126.976-4.608-4.096-8.704-7.68-12.8-10.24z" fill="#96A53F" p-id="2490"></path><path d="M266.24 420.352c-28.16 8.192-21.504 50.176-21.504 66.048 0 15.872 23.552 71.168 38.912 77.312 39.936 15.36 39.936-42.496 39.936-42.496V453.632c0.512 0-29.184-41.472-57.344-33.28z" fill="#FCCCA7" p-id="2491"></path><path d="M757.248 420.352c-28.16-8.192-57.344 32.768-57.344 32.768v67.584s0 59.904 39.936 42.496c15.36-6.656 38.912-61.44 39.424-77.312-0.512-15.36 6.144-57.344-22.016-65.536z" fill="#FBC69A" p-id="2492"></path><path d="M646.144 203.776C573.44 143.36 448.512 143.36 375.808 203.776 300.544 266.752 298.496 335.36 298.496 436.224s6.656 129.024 6.656 129.024 13.824 74.24 29.184 93.696c15.36 19.456 31.232 29.184 76.288 68.096 42.496 36.864 65.024 40.448 98.304 40.96h5.12c33.28 0 55.296-3.584 98.304-40.96 45.056-38.912 60.416-48.64 76.288-68.096 15.36-19.456 29.184-93.696 29.184-93.696v-1.536s6.144-27.136 6.144-127.488c-0.512-100.864-2.56-169.472-77.824-232.448z" fill="#FCCCA7" p-id="2493"></path><path d="M646.144 203.776c-36.352-30.208-85.504-45.056-135.168-45.056v608.768h3.072c33.28 0 55.296-3.584 98.304-40.96 45.056-38.912 60.416-48.64 76.288-68.096 15.36-19.456 29.184-93.696 29.184-93.696v-1.536s6.144-27.136 6.144-127.488c-0.512-100.352-2.56-168.96-77.824-231.936z" fill="#FBC69A" p-id="2494"></path><path d="M416.256 449.536c-14.336 0-25.6 11.264-25.6 25.6s11.264 25.6 25.6 25.6 25.6-11.264 25.6-25.6-11.776-25.6-25.6-25.6z" fill="#683C11" p-id="2495"></path><path d="M611.328 393.216c-28.672-0.512-47.616 24.064-55.296 34.304s31.744-7.168 57.344-9.216c29.184-2.048 73.216 17.408 73.216 17.408s-34.816-41.984-75.264-42.496z" fill="#3B2314" p-id="2496"></path><path d="M605.696 449.536c-14.336 0-25.6 11.264-25.6 25.6s11.264 25.6 25.6 25.6 25.6-11.264 25.6-25.6-11.776-25.6-25.6-25.6z" fill="#432918" p-id="2497"></path><path d="M410.624 392.704c-40.448 0.512-75.264 42.496-75.264 42.496s44.032-19.456 73.216-16.896c26.112 2.048 65.024 19.456 57.344 9.216-7.68-10.24-26.624-34.816-55.296-34.816z" fill="#3B2314" p-id="2498"></path><path d="M416.256 449.536c-14.336 0-25.6 11.264-25.6 25.6s11.264 25.6 25.6 25.6 25.6-11.264 25.6-25.6-11.264-25.6-25.6-25.6z" fill="#432918" p-id="2499"></path><path d="M512.512 619.008l-39.936-0.512-28.672-1.024v3.072l34.304 27.648 71.168 5.632 33.28-33.28-25.088-2.56z" fill="#FFFFFF" p-id="2500"></path><path d="M512 620.544l-49.664-2.56-4.096 1.536s-2.048 15.872 55.808 15.872c58.88-0.512 52.224-15.36 52.224-15.36l-54.272 0.512z" fill="#FFFFFF" p-id="2501"></path><path d="M515.584 615.424c-5.12 0.512-9.216-4.096-21.504-4.096-15.36 0.512-55.808 4.608-55.808 4.608s10.24 9.728 75.264 10.24c70.656 0.512 73.728-8.192 73.728-8.192s-36.352-6.656-49.152-6.144c-12.288 0-16.896 3.072-22.528 3.584z" fill="#EDA47E" p-id="2502"></path><path d="M513.536 648.704c-39.936 0.512-67.072-29.696-67.072-29.696l-8.192-3.072s23.552 48.64 75.264 48.128c58.368-0.512 74.24-46.592 74.24-46.592l-7.68 2.56c-0.512 0-20.992 28.16-66.56 28.672z" fill="#EDA47E" p-id="2503"></path><path d="M588.8 840.704l-77.312 12.8-71.168-18.432-136.704 57.344-2.56 86.528c64.512 29.184 135.68 45.056 210.944 45.056 74.752 0 146.432-16.384 210.432-45.056l-1.536-86.528-132.096-51.712z" fill="#96A53F" p-id="2504"></path><path d="M537.6 1024v-0.512c-8.704 0.512-16.896 0.512-25.6 0.512h25.6zM487.936 1024h24.064c-8.192 0-15.872 0-24.064-0.512v0.512z" fill="#30302E" p-id="2505"></path><path d="M494.592 927.232l-6.656 96.256c8.192 0.512 15.872 0.512 24.064 0.512 8.704 0 16.896 0 25.6-0.512l-8.192-96.256h-34.816z" fill="#30302E" p-id="2506"></path><path d="M511.488 850.432s-34.304 3.072-42.496 18.432c-18.432 34.304 26.112 63.488 26.112 63.488h34.304s36.864-26.624 26.624-52.224c-8.704-20.992-44.544-29.696-44.544-29.696z" fill="#1D1D1B" p-id="2507"></path><path d="M375.808 836.096l69.12 81.408 68.608-67.584-108.544-70.656z" fill="#AABF52" p-id="2508"></path><path d="M509.44 849.92l69.12 67.584 63.488-83.968-24.064-54.272z" fill="#AABF52" p-id="2509"></path><path d="M723.456 319.488s0-0.512 0 0c-0.512-5.632-1.024-11.264-1.536-15.872-2.56-29.184-6.656-88.064-27.648-117.76 0 0-35.84-72.704-139.264-82.432-187.904-17.408-283.136 96.768-283.136 96.768s29.696 10.24 26.624 120.832c-1.024 13.312-2.048 28.672-2.56 45.056v1.536c-1.024 31.744 0 69.12 3.584 113.152 0.512 5.632 13.312 22.528 16.896-9.728 3.584-30.208 8.192-82.432 18.432-128.512 3.584-15.36 25.088-89.088 89.6-75.776 40.96 8.192 42.496 12.288 86.528 13.824 65.536 2.048 74.24-14.848 110.08-11.776 28.16 2.56 43.52 11.776 55.296 35.328 18.944 51.2 24.576 126.976 29.184 166.4 3.584 32.256 16.384 15.36 16.896 9.728 5.632-67.072 4.608-119.808 1.024-159.232v-1.536z" fill="#3B2314" p-id="2510"></path><path d="M708.096 441.856s-0.512 50.688-0.512 85.504-15.872 74.24-30.72 83.968c-39.424 24.576-55.808-3.584-55.808-3.584s-15.36-22.016-54.272-36.352c-31.744-11.776-55.296 4.608-55.296 4.608s-23.552-15.872-55.296-4.608c-38.912 14.336-54.272 36.352-54.272 36.352s-16.384 27.648-55.808 3.584c-15.36-9.216-30.72-49.152-30.72-83.968s-0.512-85.504-0.512-85.504l-17.92 2.048s-12.8 138.24 16.384 196.096c14.336 28.672 64 94.72 124.928 132.096 24.064 14.848 49.664 19.456 72.704 19.456s48.64-4.608 72.704-19.456c61.44-37.376 110.592-103.936 124.928-132.096 29.184-57.856 16.384-196.096 16.384-196.096l-16.896-2.048z m-124.416 230.4c-25.088 21.504-40.448 30.208-55.808 18.432-11.264-8.704-16.384-18.432-16.384-18.432s-5.12 9.728-16.384 18.432c-15.36 12.288-30.72 3.584-55.808-18.432-25.088-21.504-16.384-61.952 12.288-64 66.048-4.608 59.904-15.36 59.904-15.36s-5.632 10.752 59.904 15.36c28.672 2.56 37.376 42.496 12.288 64z" fill="#3B2314" p-id="2511"></path><path d="M482.816 455.168c-8.192 3.584 5.632 21.504 5.632 21.504s25.088-12.288 43.008 1.536c6.656 5.12 9.216-21.504 9.216-21.504s-28.672-13.824-57.856-1.536z" fill="#1D1D1B" p-id="2512"></path><path d="M487.936 457.728s-9.216-29.696-107.52-30.208c-97.792 0-94.72 34.816-94.72 34.816s-6.656 89.6 102.912 90.112c110.08 0 104.448-76.288 104.448-76.288l-5.12-18.432z m-101.888 85.504c-78.336 0-82.432-55.296-81.408-67.584 1.024-19.968 11.776-38.4 81.92-38.4 58.368 0 94.208 12.8 94.208 35.84 0 26.624-16.384 70.144-94.72 70.144zM641.536 428.032c-97.792 0-107.52 29.696-107.52 29.696l-5.12 18.944s-6.144 76.288 103.936 76.288c110.08 0.512 103.424-89.6 103.424-89.6s3.072-34.816-94.72-35.328z m-6.144 115.712c-78.336 0-94.208-44.032-94.208-70.144 0-23.04 35.84-35.328 94.208-35.328 70.144 0 80.896 18.432 81.92 38.912 0.512 11.776-3.584 66.56-81.92 66.56z" fill="#1D1D1B" p-id="2513"></path><path d="M386.56 437.248c-70.144 0-80.896 17.92-81.92 38.4-0.512 12.288 3.584 67.072 81.408 67.584 78.336 0 94.208-43.52 94.72-69.632 0-23.552-35.84-36.352-94.208-36.352z" fill="#FDD6BA" p-id="2514"></path><path d="M635.392 437.76c-58.368 0-94.208 12.288-94.208 35.328 0 26.112 15.872 70.144 94.208 70.144 78.336 0 82.432-54.784 81.92-67.072-1.024-19.456-11.264-37.888-81.92-38.4z" fill="#FCD1B0" p-id="2515"></path><path d="M416.256 475.136m-26.112 0a26.112 26.112 0 1 0 52.224 0 26.112 26.112 0 1 0-52.224 0Z" fill="#695447" p-id="2516"></path><path d="M605.696 476.16m-26.112 0a26.112 26.112 0 1 0 52.224 0 26.112 26.112 0 1 0-52.224 0Z" fill="#695447" p-id="2517"></path></svg>